<?xml version="1.0" encoding="UTF-8" standalone="no"?>
<svg
   xmlns:dc="http://purl.org/dc/elements/1.1/"
   xmlns:cc="http://creativecommons.org/ns#"
   xmlns:rdf="http://www.w3.org/1999/02/22-rdf-syntax-ns#"
   xmlns:svg="http://www.w3.org/2000/svg"
   xmlns="http://www.w3.org/2000/svg"
   xmlns:sodipodi="http://sodipodi.sourceforge.net/DTD/sodipodi-0.dtd"
   xmlns:inkscape="http://www.inkscape.org/namespaces/inkscape"
   width="263.52908.84mm"
   height="46.229mm"
   viewBox="0 0 263.52908 46.229"
   version="1.1"
   id="svg4834"
   inkscape:version="1.0.1 (3bc2e813f5, 2020-09-07)"
   sodipodi:docname="nullpod_logo.svg">
  <defs
     id="defs4828" />
  <sodipodi:namedview
     id="base"
     pagecolor="#ffffff"
     bordercolor="#666666"
     borderopacity="1.0"
     inkscape:pageopacity="0.0"
     inkscape:pageshadow="2"
     inkscape:zoom="0.84504162"
     inkscape:cx="686.74663"
     inkscape:cy="153.11849"
     inkscape:document-units="mm"
     inkscape:current-layer="layer1"
     inkscape:document-rotation="0"
     showgrid="false"
     showguides="false"
     inkscape:guide-bbox="true"
     inkscape:window-width="2560"
     inkscape:window-height="1027"
     inkscape:window-x="-8"
     inkscape:window-y="-8"
     inkscape:window-maximized="1"
     fit-margin-top="0"
     fit-margin-left="0"
     fit-margin-right="0"
     fit-margin-bottom="0">
    <sodipodi:guide
       position="-100.96644,301.2679"
       orientation="1,0"
       id="guide5454" />
    <sodipodi:guide
       position="162.91402,171.96863"
       orientation="0,-1"
       id="guide5456" />
    <sodipodi:guide
       position="108.51007,161.64491"
       orientation="0,-1"
       id="guide5458" />
    <sodipodi:guide
       position="243.16122,206.96778"
       orientation="0,-1"
       id="guide5460" />
    <sodipodi:guide
       position="267.36403,197.49172"
       orientation="0,-1"
       id="guide5462" />
  </sodipodi:namedview>
  <metadata
     id="metadata4831">
    <rdf:RDF>
      <cc:Work
         rdf:about="">
        <dc:format>image/svg+xml</dc:format>
        <dc:type
           rdf:resource="http://purl.org/dc/dcmitype/StillImage" />
        <dc:title></dc:title>
      </cc:Work>
    </rdf:RDF>
  </metadata>
  <g
     inkscape:label="Layer 1"
     inkscape:groupmode="layer"
     id="layer1"
     transform="translate(-19.553433,-58.367041)">
    <g
       id="g865">
      <path
         d="m 65.900297,80.796359 c 0,0.877701 0.166454,1.559077 0.499265,2.044136 0.35366,0.461974 0.84258,0.676991 1.466575,0.69294 l 8.852226,0.226022 c 0.380884,0 0.608374,6.859076 0.01075,7.309658 l -9.611997,0.03353 c -2.413128,0.0084 -4.285437,-1.679368 -5.616844,-3.342433 -1.310565,-1.663021 -1.965891,-4.007455 -1.965891,-7.033265 0,0 0.02422,-7.409913 0.114885,-20.480334 0.0149,-2.135908 6.477191,-2.135994 6.480637,0 0.01727,10.938404 -0.229768,20.54963 -0.229768,20.54963 z"
         style="font-style:normal;font-variant:normal;font-weight:normal;font-stretch:normal;font-size:10.5833px;line-height:1.25;font-family:Bahnschrift;-inkscape-font-specification:Bahnschrift;letter-spacing:0px;word-spacing:0px;white-space:pre;shape-inside:url(#rect34);fill:#000000;fill-opacity:1;stroke:none;stroke-width:2.88303"
         id="path59-6-3-4-3"
         sodipodi:nodetypes="scsccscsssss" />
      <path
         d="m 87.557828,80.796359 c 0,0.877701 -0.166455,1.559113 -0.499265,2.044136 -0.35366,0.461974 -0.84258,0.676991 -1.466575,0.69294 l -8.852225,0.226022 c -0.380885,0 -0.608377,6.859076 -0.01075,7.309658 l 9.611996,0.03353 c 2.413128,0.0084 4.285442,-1.679368 5.616842,-3.342433 1.310566,-1.663021 1.965892,-4.007455 1.965892,-7.033265 0,0 -0.02422,-7.409913 -0.114885,-20.480334 -0.0149,-2.135908 -6.47719,-2.135951 -6.480637,0 -0.01727,10.938404 0.229769,20.54963 0.229769,20.54963 z"
         style="font-style:normal;font-variant:normal;font-weight:normal;font-stretch:normal;font-size:10.5833px;line-height:1.25;font-family:Bahnschrift;-inkscape-font-specification:Bahnschrift;letter-spacing:0px;word-spacing:0px;white-space:pre;shape-inside:url(#rect34);fill:#000000;fill-opacity:1;stroke:none;stroke-width:2.88303"
         id="path59-6-3-4-8-4"
         sodipodi:nodetypes="scsccscsssss" />
      <path
         d="m 47.57688,68.980824 c 0,-0.877698 -0.166449,-1.55911 -0.499266,-2.044133 -0.35366,-0.461974 -0.84258,-0.677034 -1.466575,-0.692933 l -8.852225,-0.226022 c -0.380885,0 -0.608376,-6.859091 -0.01075,-7.309673 l 9.611994,-0.03353 c 2.41313,-0.0084 4.285444,1.679375 5.616851,3.342447 1.310558,1.663022 1.965892,4.007456 1.965892,7.033256 0,0 -0.02422,7.409916 -0.114891,20.480333 -0.0149,2.135904 -6.477185,2.135947 -6.480637,0 -0.01727,-10.9384 0.229768,-20.549622 0.229768,-20.549622 z"
         style="font-style:normal;font-variant:normal;font-weight:normal;font-stretch:normal;font-size:10.5833px;line-height:1.25;font-family:Bahnschrift;-inkscape-font-specification:Bahnschrift;letter-spacing:0px;word-spacing:0px;white-space:pre;shape-inside:url(#rect34);fill:#000000;fill-opacity:1;stroke:none;stroke-width:2.88303"
         id="path59-6-3-4-1-5"
         sodipodi:nodetypes="scsccscsssss" />
      <path
         d="m 25.91934,68.980824 c 0,-0.877698 0.166456,-1.55911 0.499273,-2.044133 0.35366,-0.461974 0.842581,-0.677034 1.466576,-0.692933 l 8.852224,-0.226022 c 0.380885,0 0.608376,-6.859091 0.01075,-7.309673 l -9.611989,-0.03353 c -2.413128,-0.0084 -4.285442,1.679375 -5.61685,3.342447 -1.310565,1.663022 -1.965891,4.007456 -1.965891,7.033256 0,0 0.02422,7.409916 0.114885,20.480333 0.0149,2.135904 6.477191,2.135947 6.480644,0 0.01727,-10.9384 -0.229776,-20.549622 -0.229776,-20.549622 z"
         style="font-style:normal;font-variant:normal;font-weight:normal;font-stretch:normal;font-size:10.5833px;line-height:1.25;font-family:Bahnschrift;-inkscape-font-specification:Bahnschrift;letter-spacing:0px;word-spacing:0px;white-space:pre;shape-inside:url(#rect34);fill:#000000;fill-opacity:1;stroke:none;stroke-width:2.88303"
         id="path59-6-3-4-8-9-1"
         sodipodi:nodetypes="scsccscsssss" />
      <path
         d="m 109.95481,80.803509 c 0,0.877715 0.16646,1.559077 0.49928,2.044136 0.35365,0.461931 0.84285,0.668294 1.46656,0.692947 l 13.70105,0.541896 c 3.91812,0.139595 4.08472,6.993778 0.0108,6.993778 l -14.46081,0.03353 c -2.41314,0.0057 -4.28544,-1.679361 -5.61685,-3.342432 -1.31057,-1.663029 -1.96585,-4.007463 -1.96585,-7.033266 0,0 0.0242,-7.409907 0.11489,-20.480325 0.0149,-2.135953 6.47714,-2.135996 6.48064,0 0.0173,10.938394 -0.22982,20.549614 -0.22982,20.549614 z"
         style="font-style:normal;font-variant:normal;font-weight:normal;font-stretch:normal;font-size:10.5833px;line-height:1.25;font-family:Bahnschrift;-inkscape-font-specification:Bahnschrift;letter-spacing:0px;word-spacing:0px;white-space:pre;shape-inside:url(#rect34);fill:#000000;fill-opacity:1;stroke:none;stroke-width:2.88303"
         id="path59-6-3-4-9-2"
         sodipodi:nodetypes="scsccscsssss" />
      <path
         d="m 137.96901,80.85235 c 0,0.877716 0.16646,1.559121 0.49928,2.044151 0.35365,0.46196 0.84285,0.668293 1.46657,0.692932 l 13.701,0.541946 c 3.91817,0.139545 4.08476,6.993728 0.0108,6.993728 l -14.46078,0.03353 c -2.41313,0.0057 -4.28543,-1.67936 -5.61685,-3.342389 -1.31055,-1.663072 -1.96589,-4.007506 -1.96589,-7.033309 0,0 0.0242,-7.409907 0.11489,-20.480325 0.0149,-2.135909 6.47719,-2.135952 6.48063,0 0.0173,10.938394 -0.22977,20.549622 -0.22977,20.549622 z"
         style="font-style:normal;font-variant:normal;font-weight:normal;font-stretch:normal;font-size:10.5833px;line-height:1.25;font-family:Bahnschrift;-inkscape-font-specification:Bahnschrift;letter-spacing:0px;word-spacing:0px;white-space:pre;shape-inside:url(#rect34);fill:#000000;fill-opacity:1;stroke:none;stroke-width:2.88303"
         id="path59-6-3-4-9-9-2"
         sodipodi:nodetypes="scsccscsssss" />
      <g
         aria-label="P"
         id="text57-3-8"
         style="font-style:normal;font-variant:normal;font-weight:normal;font-stretch:normal;font-size:19.05px;line-height:1.25;font-family:'Microsoft Sans Serif';-inkscape-font-specification:'Microsoft Sans Serif';letter-spacing:0px;word-spacing:0px;white-space:pre;shape-inside:url(#rect59);fill:#000000;fill-opacity:1;stroke:none;stroke-width:0.453107"
         transform="matrix(3.1994354,-0.33139452,0.32747479,2.295864,-391.65582,-167.53365)">
        <path
           d="m 160.35653,121.63203 7.31926,1.02301 c 4.25156,0.60101 3.45255,9.599 -0.92485,9.03575 l -4.65479,-0.72095 c 0,0 -0.32216,2.54731 -0.49732,4.54211 -0.0522,0.5983 -2.71295,0.24783 -2.65531,-0.34983 0.31107,-3.22585 1.01818,-10.12045 1.41299,-13.53015 0,-2e-5 2e-5,6e-5 2e-5,6e-5 z m 1.93733,6.27614 4.7738,0.68828 c 1.48971,0.15993 1.78588,-2.77517 0.30733,-3.00265 l -4.78788,-0.63071 z"
           style="font-style:normal;font-variant:normal;font-weight:normal;font-stretch:normal;font-size:19.05px;line-height:1.25;font-family:'Microsoft Sans Serif';-inkscape-font-specification:'Microsoft Sans Serif';letter-spacing:0px;word-spacing:0px;white-space:pre;shape-inside:url(#rect59);fill:#000000;fill-opacity:1;stroke:none;stroke-width:0.453107"
           id="path68-7-88"
           sodipodi:nodetypes="ccccccscscccs" />
      </g>
      <g
         aria-label="P"
         id="text57-3-3-5"
         style="font-style:normal;font-variant:normal;font-weight:normal;font-stretch:normal;font-size:19.05px;line-height:1.25;font-family:'Microsoft Sans Serif';-inkscape-font-specification:'Microsoft Sans Serif';letter-spacing:0px;word-spacing:0px;white-space:pre;shape-inside:url(#rect59);fill:#000000;fill-opacity:1;stroke:none;stroke-width:0.450612"
         transform="matrix(2.5967477,-0.33061987,0.26578734,2.2904973,-194.64324,-243.84954)">
        <path
           d="m 154.46536,154.27543 7.31926,1.02301 c 7.7485,0.91713 7.3788,15.03497 -1.44291,14.04709 2.61061,0.37683 -4.16618,-0.60136 -7.41471,-1.07027 0.31107,-3.22585 1.14353,-10.59019 1.53834,-13.99989 0,-2e-5 2e-5,6e-5 2e-5,6e-5 z m 1.35213,11.23867 4.8384,0.76181 c 4.81464,0.83418 5.46144,-7.55033 0.82793,-8.03871 l -4.78788,-0.63071 z"
           style="font-style:normal;font-variant:normal;font-weight:normal;font-stretch:normal;font-size:19.05px;line-height:1.25;font-family:'Microsoft Sans Serif';-inkscape-font-specification:'Microsoft Sans Serif';letter-spacing:0px;word-spacing:0px;white-space:pre;shape-inside:url(#rect59);fill:#000000;fill-opacity:1;stroke:none;stroke-width:0.450612"
           id="path68-7-9-5"
           sodipodi:nodetypes="ccccscscccs" />
      </g>
      <path
         d="m 246.09093,93.493399 c -1.95531,0.620985 -3.61756,0.602135 -4.98663,-0.0561 -1.11342,-0.529838 -2.25497,-1.599744 -3.3102,-3.450314 -1.86716,-3.274375 -1.99226,-6.113103 -4.30063,-9.520672 -1.7318,-2.556361 -8.54193,-7.391652 -8.54193,-7.391652 l -2.15297,1.255828 c 0,0 6.28216,4.262867 8.49446,7.170086 2.32392,3.05166 2.61456,7.015325 4.68791,10.352441 1.32246,2.128672 3.22635,3.338374 5.13525,3.975501 1.86364,0.62977 3.97071,0.447982 6.32098,-0.545241 z"
         style="font-style:normal;font-variant:normal;font-weight:normal;font-stretch:normal;font-size:16.9333px;line-height:1.25;font-family:'AR BONNIE';-inkscape-font-specification:'AR BONNIE';letter-spacing:0px;word-spacing:0px;white-space:pre;shape-inside:url(#rect2251-5);fill:#000000;fill-opacity:1;stroke:none;stroke-width:1"
         id="path2330-7-7"
         sodipodi:nodetypes="ccssccssccc" />
      <path
         d="m 229.75918,94.76059 c -0.1584,-1.160274 -0.8497,-2.527125 -2.3553,-4.08052 -2.66397,-2.748486 -5.47592,-3.813879 -8.12534,-6.9964 -1.98752,-2.387544 -4.55784,-10.021107 -4.55784,-10.021107 l 1.98702,-1.476448 c 0,0 2.17234,6.975257 4.35097,9.904675 2.28633,3.076449 6.17369,4.666349 8.83134,7.617919 1.6953,1.882599 2.27104,3.968878 2.26933,5.866927 z"
         style="font-style:normal;font-variant:normal;font-weight:normal;font-stretch:normal;font-size:16.9333px;line-height:1.25;font-family:'AR BONNIE';-inkscape-font-specification:'AR BONNIE';letter-spacing:0px;word-spacing:0px;white-space:pre;shape-inside:url(#rect2251-5);fill:#000000;fill-opacity:1;stroke:none;stroke-width:1"
         id="path2330-0-6-1"
         sodipodi:nodetypes="cssccsscc" />
      <path
         d="m 222.64028,102.80652 c 1.28215,-1.51571 1.82249,-2.988171 1.62092,-4.41734 -0.1584,-1.160345 -0.84973,-2.527153 -2.3553,-4.080513 -2.66391,-2.748496 -5.47592,-3.813925 -8.12539,-6.996457 -1.9875,-2.387543 -4.55782,-10.021071 -4.55782,-10.021071 l 1.98697,-1.476433 c 0,0 2.1724,6.975192 4.35106,9.904624 2.28633,3.076493 6.17369,4.666389 8.83134,7.617887 1.6953,1.882632 2.27103,3.968881 2.26933,5.866981 0.006,1.855682 -0.88548,3.653012 -2.67483,5.391842 z"
         style="font-style:normal;font-variant:normal;font-weight:normal;font-stretch:normal;font-size:16.9333px;line-height:1.25;font-family:'AR BONNIE';-inkscape-font-specification:'AR BONNIE';letter-spacing:0px;word-spacing:0px;white-space:pre;shape-inside:url(#rect2251-5);fill:#000000;fill-opacity:1;stroke:none;stroke-width:1"
         id="path2330-9-3-0"
         sodipodi:nodetypes="ccssccssccc" />
      <path
         d="m 207.91229,90.34243 c -11.33442,4.339872 -11.7695,-22.640015 -1.6155,-29.36511 10.15397,-6.725096 38.8261,1.449127 28.87686,11.309637 -12.38386,12.273361 -12.63173,12.453866 -27.26136,18.055473 z"
         style="font-style:normal;font-variant:normal;font-weight:normal;font-stretch:normal;font-size:14.8167px;line-height:1.25;font-family:sans-serif;-inkscape-font-specification:Bahnschrift;letter-spacing:0px;word-spacing:0px;white-space:pre;shape-inside:url(#rect2176);fill:#000000;fill-opacity:1;stroke:none;stroke-width:1"
         id="path2180-6-0-7-0-6-1-6-7"
         sodipodi:nodetypes="ssss" />
      <path
         style="opacity:0.322581;fill:#ffffff;stroke-width:0.264583"
         id="path4581-6"
         d="m 208.4138,64.917844 c 2.68366,-0.09032 5.36491,0.03392 8.03791,0.266547 2.15399,0.145716 4.28774,0.400711 6.40418,0.825192 1.63334,0.315387 3.06159,1.180546 4.40237,2.126746 0.80842,0.447891 1.2995,1.155748 1.82869,1.874552 0.29661,0.430608 0.14126,0.219502 0.4663,0.633108 0,0 4.50131,-2.691478 4.50131,-2.691478 v 0 c -0.31339,-0.38114 -0.15961,-0.177711 -0.45768,-0.612937 -0.56363,-0.763965 -1.07847,-1.534422 -1.94834,-1.997775 -1.38863,-0.980603 -2.86891,-1.925642 -4.55071,-2.288493 -2.13951,-0.423553 -4.28677,-0.753949 -6.46973,-0.849859 -2.65652,-0.21706 -5.31749,-0.362729 -7.98393,-0.35915 0,0 -4.23037,3.073547 -4.23037,3.073547 z" />
    </g>
  </g>
</svg>
